<svg xmlns="http://www.w3.org/2000/svg" viewBox="0 0 61.24 91.72"><defs><style>.cls-1{fill:#f7323f;}</style></defs><title>Recurso 26</title><g id="Capa_2" data-name="Capa 2"><g id="home"><path class="cls-1" d="M54.51,70.48l-.09,0L42.92,65.8l-3.53-1.51V57.67h1.26a3.76,3.76,0,0,0,3.67-2.91H46.5a6.27,6.27,0,0,0,6.25-6.26V47.35h.4a5.48,5.48,0,0,0,5.45-5.46V40.77h1.08a1.56,1.56,0,1,0,0-3.11H58.6v-1a5.42,5.42,0,0,0-4.3-5.33V28.86a5.66,5.66,0,0,0-4.11-5.45V21.79A21.81,21.81,0,0,0,28.4,0h0A21.8,21.8,0,0,0,6.61,21.79v6.5a5.38,5.38,0,0,0-3.36,3.78A6.61,6.61,0,0,0,7.3,39.84a21.66,21.66,0,0,0,11,17.64v6.81L6.8,69.2l-.09,0A12.19,12.19,0,0,0,0,79.14a.66.66,0,0,0,0,.14V90.17a1.56,1.56,0,0,0,1.56,1.55h58.1a1.52,1.52,0,0,0,1.56-1.47V80a.49.49,0,0,0,0-.12A11.53,11.53,0,0,0,54.51,70.48ZM41.32,53.88a.67.67,0,0,1-.67.67H29.35a.68.68,0,0,1-.67-.67V52.52a.68.68,0,0,1,.67-.67h11.3a.68.68,0,0,1,.67.67Zm-5,5v5.48a18.92,18.92,0,0,1-14.87,0V58.91a21.27,21.27,0,0,0,7.36,1.31h0A21.46,21.46,0,0,0,36.28,58.88Zm13.91-32a2.54,2.54,0,0,1,1,2v2.39h-1Zm0,7.52h3a2.36,2.36,0,0,1,2.35,2.34v5.19a2.37,2.37,0,0,1-2.35,2.35h-3Zm-.51,13V48.5a3.16,3.16,0,0,1-3.14,3.15H46a23,23,0,0,0,2.63-4.3ZM47.08,30.56c-3.75-.11-14.62-1-23.35-7a59.9,59.9,0,0,0,6.36-1.21,27.57,27.57,0,0,0,17,7.81ZM9.73,21.79a18.68,18.68,0,0,1,37.35,0v5.27a25.22,25.22,0,0,1-13.51-5.68,31.48,31.48,0,0,0,9.13-4.69A1.56,1.56,0,0,0,43,14.51a1.51,1.51,0,0,0-1-.61,1.55,1.55,0,0,0-1.2.32c-5.2,4-12.53,5.64-17.77,6.33a64.26,64.26,0,0,1-10.37.54A1.55,1.55,0,0,0,11,22.55l-.44,7.09-.88-.45Zm8,31.64a18.32,18.32,0,0,1-7.19-12.12,19.12,19.12,0,0,1-.18-2.62v0a1.56,1.56,0,0,0-1.29-1.54A3.52,3.52,0,0,1,6.23,33a1.89,1.89,0,0,1,0-.23,2.19,2.19,0,0,1,1.19-1.49,3.24,3.24,0,0,0,.88.68l2.39,1.22a2,2,0,0,0,2.65-.85,1.91,1.91,0,0,0,.21-.77l.45-7.36c1.23,0,3,0,5.17-.17,6.18,5.28,13.75,7.61,19,8.64.13,0,6.23.91,8.8,1v8.68a18.25,18.25,0,0,1-3.65,7.58,3.74,3.74,0,0,0-2.75-1.2H29.35a3.79,3.79,0,0,0-3.78,3.78v1.36a3.77,3.77,0,0,0,1.73,3.17A18.28,18.28,0,0,1,17.75,53.43ZM31.28,88.61H3.11V79.36a9.09,9.09,0,0,1,5.12-7.31l12.15-5a23.44,23.44,0,0,0,3.51,1.2h0a44.49,44.49,0,0,0,7.19.74,23.38,23.38,0,0,0,5.19-.74h0a19.89,19.89,0,0,0,3.16-1.2l12.5,5c2.9,1.42,6,4.2,6.28,7.35l.24,9.21Z"/><path class="cls-1" d="M19.84,33.56a1.55,1.55,0,0,0-1.55,1.56v3.37a1.56,1.56,0,0,0,3.11,0V35.12A1.56,1.56,0,0,0,19.84,33.56Z"/><path class="cls-1" d="M38.82,40.05a1.56,1.56,0,0,0,1.55-1.56V35.12a1.56,1.56,0,1,0-3.11,0v3.37a1.53,1.53,0,0,0,.46,1.1A1.55,1.55,0,0,0,38.82,40.05Z"/></g></g></svg>